<?xml  version="1.0" encoding="UTF-8"?>
<!DOCTYPE svg PUBLIC "-//W3C//DTD SVG 1.0//EN" "http://www.w3.org/TR/2001/REC-SVG-20010904/DTD/svg10.dtd" >
<svg xmlns="http://www.w3.org/2000/svg" >
<metadata>
<version>1.0</version>
<id><![CDATA[Proxima N W01SC Cd Reg]]></id>
<vendor>Monotype Imaging Inc.</vendor>
<credits>
<name>Fonts.com WebFonts</name>
<URL>http://webfonts.fonts.com</URL>
<role>Home of the Web fonts</role>
</credits>
<license>
<URL>http://webfonts.fonts.com/Legal</URL>
</license>
<copyright><![CDATA[Copyright (c) Mark Simonson, 2005. All rights reserved.]]></copyright>
<trademark><![CDATA[Proxima Nova is a trademark of Mark Simonson.]]></trademark>
<licensee>
<name></name>
</licensee>
</metadata>
<defs >
<font horiz-adv-x="434" id="10da09f9-e672-4b31-8bc6-e95881160cb6">
<font-face font-family="" panose-1="2 0 5 6 3 0 0 2 0 4" ascent="769" descent="-231" units-per-em="1000" alphabetic="0">
</font-face>
<missing-glyph horiz-adv-x="0" />

<glyph unicode="&#xA;" />
<glyph unicode="&#xD;" horiz-adv-x="0" />
<glyph unicode=" " horiz-adv-x="215" />
<glyph unicode="!" horiz-adv-x="183" d="M119 163H64L49 550H133L119 163ZM145 44Q145 22 130 6T91 -10Q69 -10 54 6T38 44Q38 65 53 81T91 97Q114 97 129 81T145 44Z"  />
<glyph unicode="&quot;" horiz-adv-x="340" d="M80 414Q72 471 67 518Q64 538 62 557T58 592T55 619T54 633Q54 651 67 664T99 677Q117 677 130 664T143 633Q143 630 142 619T139 593T135 558T130 518Q124 471 117 414H80ZM223 414Q215 471 210 518Q207 538 205 557T201 592T198 619T197 633Q197 651 209 664T241 677Q260 677 273 664T286 633Q286 630 285 619T282 593T278 558T272 518Q266 471 259 414H223Z"  />
<glyph unicode="#" horiz-adv-x="432" d="M401 348H329L289 206H362L349 159H276L231 0H176L222 159H143L98 0H43L89 159H19L32 206H103L143 348H72L83 393H156L200 550H256L210 393H288L333 550H388L342 393H413L401 348ZM197 348L157 206H234L275 348H197Z"  />
<glyph unicode="$" horiz-adv-x="408" d="M179 -11Q130 -8 93 10T26 59L64 115Q84 92 113 75T179 54V256Q154 268 130 281T86 312T56 356T44 416Q44 472 81 511T179 559V628H236V561Q277 557 309 542T367 501L331 447Q311 468 287 479T236 495V313Q261 301 286 287T332 254T364 207T377 143Q377 83 341 42T236 -9V-74H179V-11ZM300 141Q300 173 282 193T236 229V58Q268 66 284 88T300 141ZM121 417Q121 391 137 373T179 341V492Q153 484 137 465T121 417Z"  />
<glyph unicode="%" horiz-adv-x="527" d="M257 425Q257 367 225 328T140 289Q87 289 56 328T24 425Q24 454 32 479T56 522T92 551T140 562Q166 562 187 552T224 523T248 479T257 425ZM504 125Q504 67 472 28T387 -11Q361 -11 340 -1T303 28T280 71T271 125Q271 154 279 179T303 222T339 251T387 262Q413 262 434 252T471 223T495 179T504 125ZM130 0H84L397 550H444L130 0ZM206 425Q206 465 189 492T140 519Q109 519 91 492T73 425Q73 385 91 359T140 332Q171 332 188 358T206 425ZM454 125Q454 165 436 192T387 219Q356 219 338 192T320 125Q320 86 338 59T387 32Q418 32 436 59T454 125Z"  />
<glyph unicode="&amp;" horiz-adv-x="450" d="M358 0Q346 14 334 27T311 54Q283 23 250 6T175 -11Q111 -11 69 29T27 141Q27 172 35 197T58 241T91 276T130 306Q93 375 93 428Q93 489 128 525T215 562Q237 562 257 555T292 533T317 498T326 451Q326 421 316 398T290 357T252 323T209 294Q220 277 232 259T258 224Q272 204 285 187T311 153Q325 182 336 213T355 273L411 250Q398 209 383 173T349 105Q369 81 391 56T441 0H358ZM183 42Q209 42 232 57T276 97Q258 120 242 140T213 179Q197 200 184 220T158 259Q132 238 114 211T96 145Q96 97 121 70T183 42ZM157 427Q157 387 182 339Q217 361 241 386T266 449Q266 480 252 495T216 511Q190 511 174 490T157 427Z"  />
<glyph unicode="&apos;" horiz-adv-x="197" d="M80 414Q72 471 67 518Q64 538 62 557T58 592T55 619T54 633Q54 651 67 664T99 677Q117 677 130 664T143 633Q143 630 142 619T139 593T135 558T130 518Q124 471 117 414H80Z"  />
<glyph unicode="(" horiz-adv-x="229" d="M164 -199Q106 -101 76 10T46 243Q46 364 76 475T164 685L211 658Q191 610 175 563T148 466T131 361T125 243Q125 180 131 126T148 21T175 -77T211 -171L164 -199Z"  />
<glyph unicode=")" horiz-adv-x="229" d="M18 -171Q38 -124 54 -77T81 20T98 125T104 243Q104 306 98 361T81 466T54 563T18 658L65 685Q122 587 152 476T183 243Q183 122 153 11T65 -199L18 -171Z"  />
<glyph unicode="*" horiz-adv-x="322" d="M139 391L144 506L48 443L26 481L128 534L26 586L48 624L144 562L139 677H183L177 562L274 624L296 586L194 534L296 481L274 443L177 506L183 391H139Z"  />
<glyph unicode="+" horiz-adv-x="438" d="M247 312V128H192V312H29V363H192V540H247V363H409V312H247Z"  />
<glyph unicode="&#x2c;" horiz-adv-x="229" d="M173 22Q173 -23 150 -62T93 -126L57 -97Q81 -80 99 -54T121 -4Q119 -4 116 -4T108 -5Q88 -5 75 9T61 44Q61 66 75 81T113 97Q137 97 155 78T173 22Z"  />
<glyph unicode="-" horiz-adv-x="268" d="M30 210V274H238V210H30Z"  />
<glyph unicode="." horiz-adv-x="229" d="M114 -10Q92 -10 77 6T61 44Q61 65 76 81T114 97Q136 97 152 81T168 44Q168 22 152 6T114 -10Z"  />
<glyph unicode="/" horiz-adv-x="248" d="M0 -20L192 687H248L56 -20H0Z"  />
<glyph unicode="0" horiz-adv-x="514" d="M467 275Q467 225 456 174T420 81T355 14T257 -12Q199 -12 159 14T94 81T58 173T47 275Q47 326 58 377T94 469T159 536T257 562Q314 562 354 536T419 469T455 377T467 275ZM385 275Q385 312 379 350T358 420T319 471T257 491Q220 491 196 471T156 420T135 351T129 275Q129 238 135 200T155 131T194 79T257 59Q294 59 318 79T358 130T379 200T385 275Z"  />
<glyph unicode="1" horiz-adv-x="315" d="M166 0V445L63 335L15 385L175 550H245V0H166Z"  />
<glyph unicode="2" horiz-adv-x="483" d="M56 0V66Q135 116 189 160T278 242T327 315T342 380Q342 429 312 460T236 491Q191 491 155 470T94 409L42 455Q74 507 124 534T239 562Q279 562 312 550T370 515T408 461T422 391Q422 319 363 238T182 71H413V0H56Z"  />
<glyph unicode="3" horiz-adv-x="473" d="M225 -129Q154 -129 104 -97T27 -18L80 29Q103 -9 139 -33T223 -58Q284 -58 314 -24T345 69Q345 103 335 126T306 163T265 184T216 190Q201 190 186 190T164 189V262Q171 261 186 261T215 261Q240 261 262 267T300 288T326 322T336 372Q336 431 304 460T221 489Q176 489 144 468T85 410L35 455Q65 503 114 531T226 560Q266 560 301 549T361 516T400 461T415 383Q415 352 405 326T378 280T340 247T296 228Q318 225 340 212T381 178T412 128T424 63Q424 21 411 -14T373 -74T310 -114T225 -129Z"  />
<glyph unicode="4" horiz-adv-x="463" d="M366 56V-117H287V56H23V126L265 550H366V127H440V56H366ZM287 463L96 127H287V463Z"  />
<glyph unicode="5" horiz-adv-x="493" d="M249 -129Q175 -129 129 -100T52 -20L105 28Q130 -14 163 -36T246 -58Q274 -58 296 -47T334 -15T358 31T367 88Q367 159 336 196T251 234Q216 234 188 220T130 171L71 192V550H412V479H150V246Q170 270 202 287T274 304Q310 304 341 290T397 249T434 181T448 89Q448 42 433 2T392 -67T329 -112T249 -129Z"  />
<glyph unicode="6" horiz-adv-x="493" d="M259 -12Q199 -12 159 17T93 94T58 204T47 333Q47 400 59 462T99 572T170 648T273 677Q326 677 365 655T429 594L385 538Q365 570 340 588T274 606Q234 606 206 582T161 520T136 435T128 340V319Q137 337 151 354T185 386T227 409T276 418Q312 418 344 405T400 365T437 298T451 205Q451 163 439 124T402 54T341 6T259 -12ZM255 59Q285 59 306 72T342 105T363 151T370 203Q370 242 361 270T337 315T300 341T255 349Q234 349 216 341T181 318T152 286T129 247Q131 219 137 186T158 125T196 78T255 59Z"  />
<glyph unicode="7" horiz-adv-x="424" d="M99 -117L309 479H26V550H399V495L184 -117H99Z"  />
<glyph unicode="8" horiz-adv-x="487" d="M244 -12Q200 -12 163 0T100 35T60 91T45 165Q45 198 56 226T87 278T130 318T178 344Q155 352 133 366T94 401T66 448T55 507Q55 550 71 582T113 635T174 666T244 677Q280 677 314 667T374 635T417 582T433 507Q433 475 422 449T394 402T354 367T309 344Q334 335 357 318T400 278T430 227T442 165Q442 124 428 91T387 35T325 0T244 -12ZM244 374Q254 376 272 384T308 406T339 443T353 496Q353 547 323 576T244 606Q195 606 165 577T135 496Q135 465 148 443T180 407T216 384T244 374ZM244 59Q268 59 289 66T326 89T352 125T362 174Q362 207 348 232T314 274T274 300T244 311Q233 309 214 300T175 274T141 232T126 174Q126 119 160 89T244 59Z"  />
<glyph unicode="9" horiz-adv-x="493" d="M220 -128Q167 -128 129 -106T65 -45L109 11Q128 -21 153 -39T220 -57Q260 -57 288 -33T333 29T358 114T366 209Q366 216 366 219T365 230Q356 212 342 195T309 163T267 140T218 131Q182 131 150 144T94 184T56 251T42 344Q42 386 54 425T92 495T152 543T235 561Q295 561 335 532T400 455T435 345T446 216Q446 149 434 87T394 -23T324 -99T220 -128ZM238 200Q259 200 277 208T312 231T341 263T364 302Q362 330 356 363T335 424T298 471T239 490Q209 490 187 477T151 444T130 398T123 346Q123 307 132 279T157 234T193 208T238 200Z"  />
<glyph unicode=":" horiz-adv-x="226" d="M114 384Q92 384 77 399T61 436Q61 459 76 474T114 490Q136 490 152 475T168 436Q168 415 152 400T114 384ZM114 -10Q92 -10 77 6T61 44Q61 65 76 81T114 97Q136 97 152 81T168 44Q168 22 152 6T114 -10Z"  />
<glyph unicode=";" horiz-adv-x="228" d="M114 384Q92 384 77 399T61 437Q61 459 76 474T114 490Q136 490 152 475T168 437Q168 415 152 400T114 384ZM173 24Q173 -22 150 -61T93 -124L57 -95Q81 -79 99 -53T121 -2Q119 -2 116 -3T108 -4Q88 -4 75 10T61 46Q61 67 75 82T113 98Q137 98 155 79T173 24Z"  />
<glyph unicode="&lt;" horiz-adv-x="438" d="M29 309V360L409 544V484L91 334L409 186V125L29 309Z"  />
<glyph unicode="=" horiz-adv-x="438" d="M29 405V456H409V405H29ZM29 212V263H409V212H29Z"  />
<glyph unicode="&gt;" horiz-adv-x="438" d="M29 125V186L347 334L29 484V544L409 360V309L29 125Z"  />
<glyph unicode="?" horiz-adv-x="335" d="M315 438Q315 409 305 387T280 348T247 317T214 290T189 261T179 226Q179 215 184 205T201 184L145 159Q129 175 123 192T116 226Q116 263 135 286T178 330T221 371T241 425Q241 454 221 476T160 499Q126 499 102 486T60 449L22 494Q48 526 86 544T171 562Q204 562 231 553T276 526T305 487T315 438ZM219 44Q219 22 203 6T165 -10Q143 -10 128 6T112 44Q112 65 127 81T165 97Q187 97 203 81T219 44Z"  />
<glyph unicode="@" horiz-adv-x="693" d="M308 -70Q248 -70 198 -48T111 13T55 108T35 230Q35 311 64 385T144 515T261 604T399 638Q457 638 504 618T586 560T638 471T657 357Q657 295 643 245T607 160T556 105T497 85Q459 85 438 107T414 161L413 167Q391 134 357 110T279 85Q228 85 193 120T157 228Q157 280 173 328T218 415T285 476T367 499Q406 499 431 477T467 424L479 483H544L486 209Q485 204 485 198T484 187Q484 161 494 149T522 137Q535 137 552 150T584 190T611 258T622 357Q622 414 606 459T560 537T489 587T397 604Q331 604 272 573T167 489T96 370T70 231Q70 172 87 123T137 39T213 -17T312 -37Q360 -37 399 -22T474 19L491 -7Q449 -37 404 -53T308 -70ZM302 139Q323 139 341 147T374 167T401 194T423 224L455 374Q452 386 446 398T430 421T407 438T377 445Q343 445 316 425T268 375T237 307T226 234Q226 191 245 165T302 139Z"  />
<glyph unicode="A" horiz-adv-x="512" d="M418 0L375 151H137L94 0H8L209 667H304L504 0H418ZM256 579L154 222H358L256 579Z"  />
<glyph unicode="B" horiz-adv-x="517" d="M70 0V667H292Q371 667 414 620T457 497Q457 434 428 395T355 344Q379 340 400 326T436 289T459 238T468 180Q468 99 426 50T298 0H70ZM277 377Q328 377 351 408T375 486Q375 533 352 564T277 596H150V377H277ZM281 71Q334 71 360 102T386 188Q386 212 380 233T361 270T328 296T281 306H150V71H281Z"  />
<glyph unicode="C" horiz-adv-x="534" d="M307 -12Q247 -12 199 14T117 85T65 194T47 333Q47 408 65 471T117 580T199 652T307 678Q345 678 375 668T429 639T471 598T503 548L437 516Q417 558 385 582T307 607Q266 607 233 587T177 530T142 443T129 333Q129 274 141 224T177 137T233 80T307 59Q353 59 386 87T438 158L504 127Q490 99 472 74T430 30T376 0T307 -12Z"  />
<glyph unicode="D" horiz-adv-x="565" d="M70 0V667H248Q313 667 363 642T448 571T500 465T518 333Q518 261 501 200T449 95T364 25T248 0H70ZM248 71Q294 71 329 91T388 146T423 229T435 333Q435 390 424 438T389 521T330 576T248 596H150V71H248Z"  />
<glyph unicode="E" horiz-adv-x="462" d="M70 0V667H413V596H150V377H406V306H150V71H413V0H70Z"  />
<glyph unicode="F" horiz-adv-x="451" d="M70 0V667H413V596H150V377H406V306H150V0H70Z"  />
<glyph unicode="G" horiz-adv-x="564" d="M307 -12Q248 -12 200 13T118 83T66 192T47 333Q47 410 65 473T118 582T200 653T307 678Q344 678 374 669T428 642T472 602T506 552L442 519Q420 558 387 582T307 607Q267 607 234 587T178 531T142 445T129 333Q129 272 142 222T178 135T234 79T307 59Q350 59 382 76T433 116V271H272V341H508V85Q472 39 421 14T307 -12Z"  />
<glyph unicode="H" horiz-adv-x="575" d="M426 0V308H150V0H70V667H150V378H426V667H505V0H426Z"  />
<glyph unicode="I" horiz-adv-x="220" d="M70 0V667H150V0H70Z"  />
<glyph unicode="J" horiz-adv-x="399" d="M149 -12Q107 -12 73 2T9 49L45 111Q63 88 87 74T143 59Q193 59 221 89T249 174V667H329V172Q329 125 316 90T278 33T221 -1T149 -12Z"  />
<glyph unicode="K" horiz-adv-x="510" d="M401 0L206 294L150 213V0H70V667H150V321L383 667H478L254 351L496 0H401Z"  />
<glyph unicode="L" horiz-adv-x="414" d="M64 0V667H144V71H386V0H64Z"  />
<glyph unicode="M" horiz-adv-x="684" d="M535 0V540L358 0H327L150 540V0H70V667H181L342 176L505 667H614V0H535Z"  />
<glyph unicode="N" horiz-adv-x="573" d="M427 0L150 508V0H70V667H150L424 169V667H503V0H427Z"  />
<glyph unicode="O" horiz-adv-x="601" d="M300 -12Q239 -12 192 15T113 88T64 198T47 333Q47 405 63 468T112 577T192 651T300 678Q361 678 408 651T488 578T537 468T554 333Q554 261 537 198T488 89T409 15T300 -12ZM300 59Q342 59 374 80T427 139T460 226T472 333Q472 391 461 441T428 528T374 586T300 607Q258 607 227 586T173 528T140 441T129 333Q129 276 140 226T173 139T226 81T300 59Z"  />
<glyph unicode="P" horiz-adv-x="488" d="M70 0V667H273Q319 667 353 651T411 608T446 544T458 467Q458 426 446 390T411 327T354 283T273 267H150V0H70ZM265 338Q317 338 346 374T376 467Q376 524 347 560T265 596H150V338H265Z"  />
<glyph unicode="Q" horiz-adv-x="601" d="M300 -12Q239 -12 192 15T113 88T64 198T47 333Q47 405 63 468T112 577T192 651T300 678Q361 678 408 651T488 578T537 468T554 333Q554 248 532 179T467 61L505 3L449 -33L415 19Q364 -12 300 -12ZM300 59Q341 59 374 81L295 204L353 239L422 131Q447 169 459 221T472 333Q472 391 461 441T428 528T374 586T300 607Q258 607 227 586T173 528T140 441T129 333Q129 276 140 226T173 139T226 81T300 59Z"  />
<glyph unicode="R" horiz-adv-x="510" d="M375 0L246 267H150V0H70V667H274Q314 667 348 653T406 613T444 551T458 468Q458 423 447 390T416 334T374 297T325 279L465 0H375ZM265 337Q317 337 346 373T376 467Q376 524 347 560T265 596H150V337H265Z"  />
<glyph unicode="S" horiz-adv-x="472" d="M229 -12Q163 -12 114 11T29 72L73 133Q99 102 139 81T229 59Q260 59 283 68T321 92T343 128T351 169Q351 209 329 235T273 280T200 316T128 356T72 414T49 503Q49 541 63 573T103 628T164 665T241 678Q353 678 419 607L378 547Q350 578 315 592T239 607Q192 607 161 580T130 507Q130 472 152 449T208 408T281 371T353 328T409 267T432 174Q432 137 420 104T383 45T320 4T229 -12Z"  />
<glyph unicode="T" horiz-adv-x="447" d="M184 0V596H25V667H422V596H263V0H184Z"  />
<glyph unicode="U" horiz-adv-x="569" d="M285 -12Q184 -12 127 46T70 216V667H150V216Q150 138 185 99T285 59Q349 59 384 98T419 216V667H499V216Q499 105 443 47T285 -12Z"  />
<glyph unicode="V" horiz-adv-x="512" d="M209 0L8 667H94L256 96L418 667H504L304 0H209Z"  />
<glyph unicode="W" horiz-adv-x="717" d="M467 0L358 526L249 0H165L16 667H101L211 124L325 667H392L506 124L616 667H701L552 0H467Z"  />
<glyph unicode="X" horiz-adv-x="512" d="M412 0L256 276L100 0H8L208 341L19 667H112L256 405L400 667H493L304 341L504 0H412Z"  />
<glyph unicode="Y" horiz-adv-x="501" d="M211 0V282L5 667H94L251 359L408 667H496L290 282V0H211Z"  />
<glyph unicode="Z" horiz-adv-x="463" d="M40 0V68L321 596H40V667H416V601L134 71H423V0H40Z"  />
<glyph unicode="[" horiz-adv-x="212" d="M37 -190V678H195V625H93V-137H195V-190H37Z"  />
<glyph unicode="\" horiz-adv-x="248" d="M0 687H57L249 -20H192L0 687Z"  />
<glyph unicode="]" horiz-adv-x="212" d="M17 -190V-137H119V625H17V678H175V-190H17Z"  />
<glyph unicode="^" horiz-adv-x="381" d="M304 333L190 610L77 333H19L163 667H218L362 333H304Z"  />
<glyph unicode="_" horiz-adv-x="422" d="M-3 -93V-40H425V-93H-3Z"  />
<glyph unicode="`" horiz-adv-x="186" d="M135 556L0 700H73L186 556H135Z"  />
<glyph unicode="a" horiz-adv-x="445" d="M266 550L438 0H358L322 122H123L87 0H6L179 550H266ZM223 465L139 188H305L223 465Z"  />
<glyph unicode="b" horiz-adv-x="449" d="M66 0V550H255Q325 550 363 511T401 409Q401 359 377 328T318 284Q359 273 385 235T411 149Q411 82 373 41T261 0H66ZM249 66Q291 66 312 90T333 157Q333 193 313 221T249 249H141V66H249ZM245 315Q287 315 305 339T324 399Q324 434 306 459T245 484H141V315H245Z"  />
<glyph unicode="c" horiz-adv-x="468" d="M269 -12Q216 -12 175 10T104 70T59 160T43 275Q43 337 58 389T103 480T174 540T269 562Q301 562 327 554T375 530T412 495T442 450L381 422Q363 457 335 476T269 496Q234 496 207 480T160 434T131 364T120 275Q120 228 130 188T160 118T206 71T269 54Q307 54 335 74T381 130L443 103Q417 54 376 21T269 -12Z"  />
<glyph unicode="d" horiz-adv-x="502" d="M66 0V550H224Q281 550 324 529T398 471T443 384T459 274Q459 215 444 165T399 78T325 21T224 0H66ZM224 66Q263 66 292 82T342 125T372 191T382 274Q382 319 372 357T343 424T293 468T224 484H141V66H224Z"  />
<glyph unicode="e" horiz-adv-x="411" d="M66 0V550H367V484H141V315H361V249H141V66H367V0H66Z"  />
<glyph unicode="f" horiz-adv-x="401" d="M66 0V550H367V484H141V315H361V249H141V0H66Z"  />
<glyph unicode="g" horiz-adv-x="500" d="M270 -12Q218 -12 176 9T105 68T59 159T43 275Q43 339 59 391T104 482T176 541T270 562Q333 562 374 532T443 455L384 425Q364 456 336 476T270 496Q235 496 208 480T161 434T131 365T120 275Q120 227 130 186T160 116T207 71T270 54Q306 54 333 68T375 99V222H255V285H447V70Q413 30 369 9T270 -12Z"  />
<glyph unicode="h" horiz-adv-x="513" d="M373 0V250H141V0H66V550H141V316H373V550H448V0H373Z"  />
<glyph unicode="i" horiz-adv-x="206" d="M66 0V550H141V0H66Z"  />
<glyph unicode="j" horiz-adv-x="353" d="M128 -12Q54 -12 7 42L38 99Q54 79 75 67T122 54Q164 54 188 78T212 147V550H287V141Q287 62 242 25T128 -12Z"  />
<glyph unicode="k" horiz-adv-x="453" d="M351 0L185 237L141 176V0H66V550H141V277L336 550H425L231 289L441 0H351Z"  />
<glyph unicode="l" horiz-adv-x="378" d="M66 0V550H141V66H349V0H66Z"  />
<glyph unicode="m" horiz-adv-x="605" d="M466 0V428L319 0H287L141 428V0H66V550H165L303 148L440 550H540V0H466Z"  />
<glyph unicode="n" horiz-adv-x="510" d="M369 0L140 413V0H66V550H144L369 146V550H444V0H369Z"  />
<glyph unicode="o" horiz-adv-x="529" d="M265 -12Q211 -12 170 10T100 71T58 162T43 275Q43 335 57 387T100 478T169 539T265 562Q319 562 360 540T429 479T471 388T486 275Q486 215 472 163T429 72T360 11T265 -12ZM265 54Q300 54 327 71T372 119T399 189T409 275Q409 321 400 361T372 432T327 479T265 496Q229 496 202 479T157 432T129 362T120 275Q120 230 129 190T156 119T202 72T265 54Z"  />
<glyph unicode="p" horiz-adv-x="429" d="M66 0V550H242Q282 550 312 537T362 500T392 447T402 383Q402 349 393 319T363 265T313 229T242 215H141V0H66ZM235 281Q281 281 303 310T325 383Q325 427 303 455T235 484H141V281H235Z"  />
<glyph unicode="q" horiz-adv-x="529" d="M265 -12Q211 -12 170 10T100 71T58 162T43 275Q43 335 57 387T100 478T169 539T265 562Q319 562 360 540T429 479T471 388T486 275Q486 203 466 143T404 43L433 -1L382 -31L357 9Q337 -1 314 -6T265 -12ZM265 54Q293 54 319 67L256 167L307 197L364 107Q386 137 397 180T409 275Q409 321 400 361T372 432T327 479T265 496Q229 496 202 479T157 432T129 362T120 275Q120 230 129 190T156 119T202 72T265 54Z"  />
<glyph unicode="r" horiz-adv-x="449" d="M325 0L217 215H141V0H66V550H242Q281 550 310 537T360 502T391 449T402 383Q402 314 370 274T289 226L410 0H325ZM235 281Q281 281 303 309T325 383Q325 428 303 456T235 484H141V281H235Z"  />
<glyph unicode="s" horiz-adv-x="408" d="M200 -12Q143 -12 101 6T26 59L64 115Q87 89 122 71T199 53Q249 53 274 78T300 141Q300 174 281 194T234 230T172 260T111 293T63 342T44 416Q44 448 56 474T91 520T143 551T210 562Q261 562 299 547T367 501L331 447Q306 473 275 485T211 497Q173 497 147 475T121 417Q121 388 140 370T187 337T249 308T310 272T358 221T377 143Q377 110 366 82T332 33T276 0T200 -12Z"  />
<glyph unicode="t" horiz-adv-x="373" d="M149 0V484H21V550H352V484H224V0H149Z"  />
<glyph unicode="u" horiz-adv-x="507" d="M253 -12Q157 -12 112 44T66 208V550H141V187Q141 122 169 88T253 54Q309 54 337 88T366 187V550H441V208Q441 99 395 44T253 -12Z"  />
<glyph unicode="v" horiz-adv-x="445" d="M179 0L6 550H87L223 95L358 550H438L266 0H179Z"  />
<glyph unicode="w" horiz-adv-x="623" d="M405 0L311 417L218 0H140L9 550H89L182 122L280 550H343L441 122L534 550H614L483 0H405Z"  />
<glyph unicode="x" horiz-adv-x="448" d="M355 0L224 222L92 0H6L177 281L15 550H102L224 340L345 550H432L270 282L442 0H355Z"  />
<glyph unicode="y" horiz-adv-x="439" d="M183 0V233L3 550H87L220 304L353 550H435L258 233V0H183Z"  />
<glyph unicode="z" horiz-adv-x="405" d="M33 0V58L274 484H33V550H366V493L125 66H372V0H33Z"  />
<glyph unicode="{" horiz-adv-x="231" d="M168 -190Q147 -190 127 -182T92 -158T68 -120T58 -71V150Q58 178 45 199T6 220V268Q32 268 45 289T58 338V559Q58 586 67 608T92 645T127 669T168 678H214V625H168Q146 625 130 607T114 559V332Q114 300 104 278T69 244Q94 233 104 211T114 156V-71Q114 -100 130 -118T168 -137H214V-190H168Z"  />
<glyph unicode="|" horiz-adv-x="194" d="M70 -20V687H124V-20H70Z"  />
<glyph unicode="}" horiz-adv-x="231" d="M17 -137H63Q85 -137 101 -119T117 -71V156Q117 188 127 210T162 244Q137 255 127 277T117 332V559Q117 588 101 606T63 625H17V678H63Q84 678 104 670T139 646T164 608T174 559V338Q174 310 187 289T226 268V220Q200 220 187 199T174 150V-71Q174 -98 165 -120T140 -157T104 -181T63 -190H17V-137Z"  />
<glyph unicode="~" horiz-adv-x="449" d="M422 662Q419 621 413 579T393 502T357 446T299 424Q271 424 254 438T226 473T208 519T194 565T177 601T151 615Q119 615 105 566T82 423L27 429Q30 470 37 512T57 589T93 644T151 666Q179 666 196 652T224 617T242 570T256 524T272 488T299 474Q331 474 345 523T368 667L422 662Z"  />
<glyph unicode="&#xA0;" horiz-adv-x="215" />
<glyph unicode="&#xA1;" horiz-adv-x="183" d="M64 387H119L134 0H50L64 387ZM38 506Q38 528 53 544T92 560Q114 560 129 544T145 506Q145 485 130 469T92 453Q69 453 54 469T38 506Z"  />
<glyph unicode="&#xA2;" horiz-adv-x="468" d="M241 -10Q194 -4 158 19T96 80T57 168T43 275Q43 332 56 382T95 469T157 530T241 560V619H298V560Q350 552 384 522T442 450L381 422Q367 450 346 468T298 492V57Q353 71 381 130L443 103Q420 59 386 29T298 -10V-93H241V-10ZM120 275Q120 190 152 131T241 57V492Q184 479 152 420T120 275Z"  />
<glyph unicode="&#xA3;" horiz-adv-x="370" d="M19 272H79Q63 301 51 332T38 405Q38 439 50 468T84 517T134 549T195 561Q244 561 282 537T337 470L280 443Q269 473 248 489T199 505Q164 505 138 478T111 404Q111 366 125 335T157 272H258V225H178Q183 212 185 200T188 173Q188 142 173 115T139 72Q151 77 161 77Q178 77 191 73T216 64T239 55T264 51Q284 51 302 60T330 81L361 28Q346 11 319 1T260 -10Q236 -10 222 -5T195 6T171 17T140 22Q123 22 102 14T60 -8L35 43Q77 65 100 95T123 159Q123 176 118 192T105 225H19V272Z"  />
<glyph unicode="&#xA4;" horiz-adv-x="506" d="M253 222Q310 222 341 262T372 365Q372 395 364 421T341 467T304 498T253 509Q224 509 202 498T165 468T141 422T133 365Q133 334 141 308T164 263T202 233T253 222ZM19 168L88 239Q50 294 50 365Q50 436 88 489L19 560L64 603L131 534Q155 552 185 563T253 574Q289 574 320 563T375 534L442 603L487 560L418 489Q455 435 455 365Q455 330 445 298T417 240L487 168L442 125L374 194Q325 157 253 157Q181 157 132 194L64 125L19 168Z"  />
<glyph unicode="&#xA5;" horiz-adv-x="439" d="M183 0V114H21V160H183V232H21V278H157L3 550H87L220 304L353 550H435L283 278H417V232H258V160H417V114H258V0H183Z"  />
<glyph unicode="&#xA6;" horiz-adv-x="194" d="M70 -20V296H124V-20H70ZM70 371V687H124V371H70Z"  />
<glyph unicode="&#xA7;" horiz-adv-x="390" d="M352 307Q352 269 332 237T269 186Q309 163 330 133T352 58Q352 27 340 2T307 -42T256 -71T191 -81Q131 -81 94 -62T28 -12L63 36Q80 15 112 -5T188 -26Q230 -26 256 -3T282 55Q282 84 264 102T220 134T162 159T104 188T59 232T41 299Q41 344 69 375T141 418Q90 444 66 475T41 550Q41 577 52 600T83 641T130 667T192 677Q247 677 283 659T343 614L309 570Q285 599 257 611T196 623Q158 623 134 603T110 550Q110 523 128 506T173 477T231 452T289 422T334 377T352 307ZM284 297Q284 318 276 334T256 361T228 380T199 394Q145 382 127 358T108 308Q108 289 116 275T138 250T172 228T216 208Q284 240 284 297Z"  />
<glyph unicode="&#xA8;" horiz-adv-x="268" d="M266 604Q266 585 253 572T221 559Q202 559 189 572T176 604Q176 622 189 635T221 649Q240 649 253 636T266 604ZM92 604Q92 585 79 572T47 559Q28 559 15 572T2 604Q2 622 15 635T47 649Q65 649 78 636T92 604Z"  />
<glyph unicode="&#xA9;" horiz-adv-x="778" d="M734 334Q734 263 707 200T633 90T524 16T389 -11Q318 -11 255 16T145 90T71 200T44 334Q44 406 71 468T145 578T255 652T389 679Q461 679 523 652T633 578T707 469T734 334ZM704 334Q704 399 679 456T612 556T512 624T389 649Q324 649 267 624T167 557T99 457T74 334Q74 269 99 212T167 112T267 44T389 19Q454 19 511 44T611 112T679 212T704 334ZM537 187Q510 155 475 138T392 121Q348 121 310 137T244 182T200 250T183 335Q183 381 199 420T244 487T310 532T392 548Q439 548 475 531T537 483L512 458Q492 484 460 499T392 515Q357 515 326 502T271 466T233 409T219 335Q219 296 233 263T271 205T326 167T392 153Q428 153 460 169T512 212L537 187Z"  />
<glyph unicode="&#xAA;" horiz-adv-x="329" d="M221 326V360Q207 340 185 329T133 318Q93 318 64 345T34 422Q34 472 63 498T133 525Q162 525 184 515T221 485V538Q221 571 203 587T155 603Q134 603 113 594T72 562L48 600Q72 625 101 636T163 648Q214 648 245 622T277 536V326H221ZM153 356Q173 356 191 365T221 394V451Q210 471 192 480T153 489Q124 489 107 471T90 423Q90 394 107 375T153 356Z"  />
<glyph unicode="&#xAB;" horiz-adv-x="382" d="M285 63L160 243L285 420H352L227 243L352 63H285ZM155 63L30 243L155 420H222L97 243L222 63H155Z"  />
<glyph unicode="&#xAC;" horiz-adv-x="441" d="M409 212H356V405H29V456H409V212Z"  />
<glyph unicode="&#xAD;" horiz-adv-x="268" d="M30 210V274H238V210H30Z"  />
<glyph unicode="&#xAE;" horiz-adv-x="494" d="M459 465Q459 421 443 383T398 315T330 270T247 253Q203 253 165 269T97 315T52 382T35 465Q35 509 51 548T97 615T164 660T247 677Q291 677 330 661T397 616T442 548T459 465ZM430 465Q430 504 416 537T377 595T319 634T247 648Q209 648 176 634T117 595T78 537T64 465Q64 427 78 394T117 336T175 297T247 282Q285 282 318 296T376 335T415 393T430 465ZM305 343L242 439H198V343H166V586H265Q296 586 319 566T342 512Q342 492 335 478T317 456T296 444T280 440L345 343H305ZM309 512Q309 532 295 545T265 558H198V468H265Q281 468 295 480T309 512Z"  />
<glyph unicode="&#xAF;" horiz-adv-x="306" d="M0 591V637H306V591H0Z"  />
<glyph unicode="&#xB0;" horiz-adv-x="289" d="M266 555Q266 530 257 509T231 471T192 445T144 435Q119 435 97 444T59 470T33 508T23 555Q23 580 32 602T58 641T97 667T144 677Q169 677 191 668T230 642T256 603T266 555ZM219 555Q219 586 197 608T144 630Q113 630 92 608T70 555Q70 525 91 504T144 482Q175 482 197 503T219 555Z"  />
<glyph unicode="&#xB1;" horiz-adv-x="438" d="M247 318V134H192V318H29V369H192V546H247V369H409V318H247ZM29 22V73H409V22H29Z"  />
<glyph unicode="&#xB2;" horiz-adv-x="327" d="M41 421V465Q93 516 129 553T188 618T221 668T232 713Q232 746 212 762T163 779Q133 779 110 765T72 728L37 763Q59 795 92 811T165 827Q190 827 213 820T253 799T280 764T290 715Q290 689 279 663T247 609T193 546T119 469H292V421H41Z"  />
<glyph unicode="&#xB3;" horiz-adv-x="327" d="M293 530Q293 479 259 447T162 414Q115 414 82 433T31 480L67 515Q82 491 106 477T160 462Q198 462 217 481T236 533Q236 553 229 566T211 588T184 599T153 603Q142 603 133 603T120 602V650Q125 649 133 649T151 649Q186 649 208 664T230 714Q230 747 210 763T158 779Q130 779 109 767T70 732L36 764Q56 793 88 810T162 827Q217 827 252 800T287 720Q287 682 264 658T211 628Q225 626 239 619T266 599T285 569T293 530Z"  />
<glyph unicode="&#xB4;" horiz-adv-x="186" d="M51 556H0L114 700H186L51 556Z"  />
<glyph unicode="&#xB5;" horiz-adv-x="465" d="M66 -184V483H137V139Q137 90 158 70T215 50Q233 50 249 56T281 74T308 98T328 127V483H400V0H328V67Q306 35 270 12T188 -12Q173 -12 161 -10T137 -5V-184H66Z"  />
<glyph unicode="&#xB6;" horiz-adv-x="449" d="M333 -100V623H243V-100H199V323Q163 323 132 336T78 373T41 428T27 495Q27 531 40 562T77 616T132 653T199 667H376V-100H333Z"  />
<glyph unicode="&#xB7;" horiz-adv-x="229" d="M168 245Q168 223 152 207T114 191Q92 191 77 207T61 245Q61 266 76 282T114 298Q136 298 152 282T168 245Z"  />
<glyph unicode="&#xB8;" horiz-adv-x="185" d="M89 -191Q61 -191 38 -182T0 -161L18 -124Q50 -152 88 -152Q109 -152 125 -141T142 -110Q142 -94 134 -85T109 -75Q98 -75 90 -79T76 -91L44 -73L74 11H118L92 -55Q105 -45 125 -45Q151 -45 168 -63T185 -111Q185 -147 158 -169T89 -191Z"  />
<glyph unicode="&#xB9;" horiz-adv-x="225" d="M110 421V746L48 680L14 716L118 821H169V421H110Z"  />
<glyph unicode="&#xBA;" horiz-adv-x="348" d="M173 318Q140 318 115 331T71 367T44 420T35 483Q35 516 44 546T71 598T114 634T173 648Q207 648 233 635T276 599T303 546T312 483Q312 450 303 420T277 368T233 332T173 318ZM173 365Q215 365 235 400T255 483Q255 531 235 565T173 600Q132 600 113 566T93 483Q93 459 98 438T113 400T138 375T173 365Z"  />
<glyph unicode="&#xBB;" horiz-adv-x="382" d="M97 63H30L155 243L30 420H97L222 243L97 63ZM227 63H160L285 243L160 420H227L352 243L227 63Z"  />
<glyph unicode="&#xBC;" horiz-adv-x="673" d="M166 0H119L468 667H516L166 0ZM600 101V0H543V101H374V146L525 400H600V148H647V101H600ZM543 341L428 148H543V341ZM110 267V592L48 526L14 562L118 667H169V267H110Z"  />
<glyph unicode="&#xBD;" horiz-adv-x="708" d="M166 0H119L468 667H516L166 0ZM422 0V44Q474 95 510 132T569 197T602 247T613 292Q613 325 593 341T544 358Q514 358 491 344T453 307L418 342Q440 374 473 390T546 406Q571 406 594 399T634 378T661 343T671 294Q671 268 660 242T628 188T574 125T500 48H673V0H422ZM110 267V592L48 526L14 562L118 667H169V267H110Z"  />
<glyph unicode="&#xBE;" horiz-adv-x="746" d="M239 0H192L541 667H589L239 0ZM673 101V0H616V101H447V146L598 400H673V148H720V101H673ZM616 341L501 148H616V341ZM293 376Q293 325 259 293T162 260Q115 260 82 279T31 326L67 361Q82 337 106 323T160 308Q198 308 217 327T236 379Q236 399 229 412T211 434T184 445T153 449Q142 449 133 449T120 448V496Q125 495 133 495T151 495Q186 495 208 510T230 560Q230 593 210 609T158 625Q130 625 109 613T70 578L36 610Q56 639 88 656T162 673Q217 673 252 646T287 566Q287 528 264 504T211 474Q225 472 239 465T266 445T285 415T293 376Z"  />
<glyph unicode="&#xBF;" horiz-adv-x="335" d="M20 112Q20 141 30 163T55 202T88 233T121 260T146 289T156 324Q156 335 151 345T134 366L190 391Q206 375 212 358T219 324Q219 287 200 264T157 220T114 179T94 125Q94 96 114 74T175 51Q209 51 233 64T275 101L313 56Q287 24 249 6T164 -12Q131 -12 104 -3T59 24T30 63T20 112ZM116 506Q116 528 132 544T170 560Q192 560 207 544T223 506Q223 485 208 469T170 453Q148 453 132 469T116 506Z"  />
<glyph unicode="&#xC0;" horiz-adv-x="512" d="M264 728L129 872H202L315 728H264ZM418 0L375 151H137L94 0H8L209 667H304L504 0H418ZM256 579L154 222H358L256 579Z"  />
<glyph unicode="&#xC1;" horiz-adv-x="512" d="M250 728H199L313 872H385L250 728ZM418 0L375 151H137L94 0H8L209 667H304L504 0H418ZM256 579L154 222H358L256 579Z"  />
<glyph unicode="&#xC2;" horiz-adv-x="512" d="M328 728L256 833L187 728H141L221 872H291L374 728H328ZM418 0L375 151H137L94 0H8L209 667H304L504 0H418ZM256 579L154 222H358L256 579Z"  />
<glyph unicode="&#xC3;" horiz-adv-x="512" d="M307 726Q283 726 270 740T248 773T230 805T205 820Q188 820 176 799T164 732H122Q122 789 143 827T207 866Q231 866 244 852T266 819T285 787T309 772Q327 772 338 793T350 860H392Q392 803 371 765T307 726ZM418 0L375 151H137L94 0H8L209 667H304L504 0H418ZM256 579L154 222H358L256 579Z"  />
<glyph unicode="&#xC4;" horiz-adv-x="512" d="M389 773Q389 754 376 741T344 728Q325 728 312 741T299 773Q299 791 312 804T344 818Q363 818 376 805T389 773ZM215 773Q215 754 202 741T170 728Q151 728 138 741T125 773Q125 791 138 804T170 818Q188 818 201 805T215 773ZM418 0L375 151H137L94 0H8L209 667H304L504 0H418ZM256 579L154 222H358L256 579Z"  />
<glyph unicode="&#xC5;" horiz-adv-x="512" d="M257 693Q219 693 193 719T166 784Q166 822 192 848T257 874Q295 874 321 848T347 784Q347 746 321 720T257 693ZM257 731Q279 731 294 746T309 784Q309 806 294 821T257 837Q235 837 220 822T204 784Q204 761 219 746T257 731ZM418 0L375 151H137L94 0H8L209 667H304L504 0H418ZM256 579L154 222H358L256 579Z"  />
<glyph unicode="&#xC6;" horiz-adv-x="752" d="M361 0V151H166L97 0H11L328 667H704V596H440V377H697V306H440V71H704V0H361ZM361 579L195 222H361V579Z"  />
<glyph unicode="&#xC7;" horiz-adv-x="534" d="M301 -187Q273 -187 250 -178T212 -157L230 -120Q262 -148 300 -148Q321 -148 337 -137T354 -106Q354 -90 346 -81T321 -71Q310 -71 302 -75T288 -87L256 -69L277 -10Q223 -4 181 24T109 98T63 203T47 333Q47 408 65 471T117 580T199 652T307 678Q345 678 375 668T429 639T471 598T503 548L437 516Q417 558 385 582T307 607Q266 607 233 587T177 530T142 443T129 333Q129 274 141 224T177 137T233 80T307 59Q353 59 386 87T438 158L504 127Q490 100 473 76T434 33T383 3T319 -11L304 -51Q317 -41 337 -41Q363 -41 380 -59T397 -107Q397 -143 370 -165T301 -187Z"  />
<glyph unicode="&#xC8;" horiz-adv-x="462" d="M251 728L116 872H189L302 728H251ZM70 0V667H413V596H150V377H406V306H150V71H413V0H70Z"  />
<glyph unicode="&#xC9;" horiz-adv-x="462" d="M236 728H185L299 872H371L236 728ZM70 0V667H413V596H150V377H406V306H150V71H413V0H70Z"  />
<glyph unicode="&#xCA;" horiz-adv-x="462" d="M313 728L241 833L172 728H126L206 872H276L359 728H313ZM70 0V667H413V596H150V377H406V306H150V71H413V0H70Z"  />
<glyph unicode="&#xCB;" horiz-adv-x="462" d="M374 773Q374 754 361 741T329 728Q310 728 297 741T284 773Q284 791 297 804T329 818Q348 818 361 805T374 773ZM200 773Q200 754 187 741T155 728Q136 728 123 741T110 773Q110 791 123 804T155 818Q173 818 186 805T200 773ZM70 0V667H413V596H150V377H406V306H150V71H413V0H70Z"  />
<glyph unicode="&#xCC;" horiz-adv-x="220" d="M117 728L-18 872H55L168 728H117ZM70 0V667H150V0H70Z"  />
<glyph unicode="&#xCD;" horiz-adv-x="220" d="M104 728H53L167 872H239L104 728ZM70 0V667H150V0H70Z"  />
<glyph unicode="&#xCE;" horiz-adv-x="220" d="M181 728L109 833L40 728H-6L74 872H144L227 728H181ZM70 0V667H150V0H70Z"  />
<glyph unicode="&#xCF;" horiz-adv-x="220" d="M243 773Q243 754 230 741T198 728Q179 728 166 741T153 773Q153 791 166 804T198 818Q217 818 230 805T243 773ZM69 773Q69 754 56 741T24 728Q5 728 -8 741T-21 773Q-21 791 -8 804T24 818Q42 818 55 805T69 773ZM70 0V667H150V0H70Z"  />
<glyph unicode="&#xD0;" horiz-adv-x="589" d="M94 0V300H16V358H94V667H272Q337 667 387 642T472 571T524 465T542 333Q542 261 525 200T473 95T388 25T272 0H94ZM174 300V71H272Q318 71 353 91T412 146T447 229T459 333Q459 390 448 438T413 521T354 576T272 596H174V358H298V300H174Z"  />
<glyph unicode="&#xD1;" horiz-adv-x="573" d="M334 726Q310 726 297 740T275 773T257 805T232 820Q215 820 203 799T191 732H149Q149 789 170 827T234 866Q258 866 271 852T293 819T312 787T336 772Q354 772 365 793T377 860H419Q419 803 398 765T334 726ZM427 0L150 508V0H70V667H150L424 169V667H503V0H427Z"  />
<glyph unicode="&#xD2;" horiz-adv-x="601" d="M309 728L174 872H247L360 728H309ZM300 -12Q239 -12 192 15T113 88T64 198T47 333Q47 405 63 468T112 577T192 651T300 678Q361 678 408 651T488 578T537 468T554 333Q554 261 537 198T488 89T409 15T300 -12ZM300 59Q342 59 374 80T427 139T460 226T472 333Q472 391 461 441T428 528T374 586T300 607Q258 607 227 586T173 528T140 441T129 333Q129 276 140 226T173 139T226 81T300 59Z"  />
<glyph unicode="&#xD3;" horiz-adv-x="601" d="M294 728H243L357 872H429L294 728ZM300 -12Q239 -12 192 15T113 88T64 198T47 333Q47 405 63 468T112 577T192 651T300 678Q361 678 408 651T488 578T537 468T554 333Q554 261 537 198T488 89T409 15T300 -12ZM300 59Q342 59 374 80T427 139T460 226T472 333Q472 391 461 441T428 528T374 586T300 607Q258 607 227 586T173 528T140 441T129 333Q129 276 140 226T173 139T226 81T300 59Z"  />
<glyph unicode="&#xD4;" horiz-adv-x="601" d="M372 728L300 833L231 728H185L265 872H335L418 728H372ZM300 -12Q239 -12 192 15T113 88T64 198T47 333Q47 405 63 468T112 577T192 651T300 678Q361 678 408 651T488 578T537 468T554 333Q554 261 537 198T488 89T409 15T300 -12ZM300 59Q342 59 374 80T427 139T460 226T472 333Q472 391 461 441T428 528T374 586T300 607Q258 607 227 586T173 528T140 441T129 333Q129 276 140 226T173 139T226 81T300 59Z"  />
<glyph unicode="&#xD5;" horiz-adv-x="601" d="M351 726Q327 726 314 740T292 773T274 805T249 820Q232 820 220 799T208 732H166Q166 789 187 827T251 866Q275 866 288 852T310 819T329 787T353 772Q371 772 382 793T394 860H436Q436 803 415 765T351 726ZM300 -12Q239 -12 192 15T113 88T64 198T47 333Q47 405 63 468T112 577T192 651T300 678Q361 678 408 651T488 578T537 468T554 333Q554 261 537 198T488 89T409 15T300 -12ZM300 59Q342 59 374 80T427 139T460 226T472 333Q472 391 461 441T428 528T374 586T300 607Q258 607 227 586T173 528T140 441T129 333Q129 276 140 226T173 139T226 81T300 59Z"  />
<glyph unicode="&#xD6;" horiz-adv-x="601" d="M432 773Q432 754 419 741T387 728Q368 728 355 741T342 773Q342 791 355 804T387 818Q406 818 419 805T432 773ZM258 773Q258 754 245 741T213 728Q194 728 181 741T168 773Q168 791 181 804T213 818Q231 818 244 805T258 773ZM300 -12Q239 -12 192 15T113 88T64 198T47 333Q47 405 63 468T112 577T192 651T300 678Q361 678 408 651T488 578T537 468T554 333Q554 261 537 198T488 89T409 15T300 -12ZM300 59Q342 59 374 80T427 139T460 226T472 333Q472 391 461 441T428 528T374 586T300 607Q258 607 227 586T173 528T140 441T129 333Q129 276 140 226T173 139T226 81T300 59Z"  />
<glyph unicode="&#xD7;" horiz-adv-x="438" d="M219 298L92 170L55 206L183 334L55 462L92 498L219 370L347 498L383 462L255 334L383 206L347 170L219 298Z"  />
<glyph unicode="&#xD8;" horiz-adv-x="601" d="M300 -12Q260 -12 227 -1T165 32L147 0H88L126 70Q88 118 68 185T47 333Q47 405 63 468T112 577T192 651T300 678Q339 678 372 667T433 635L451 667H510L472 598Q512 550 533 482T554 333Q554 261 537 198T488 89T409 15T300 -12ZM300 59Q342 59 374 80T427 139T460 226T472 333Q472 389 462 437T431 521L202 100Q243 59 300 59ZM129 333Q129 279 138 231T168 147L396 567Q376 586 353 596T300 607Q258 607 227 586T173 528T140 441T129 333Z"  />
<glyph unicode="&#xD9;" horiz-adv-x="569" d="M293 728L158 872H231L344 728H293ZM285 -12Q184 -12 127 46T70 216V667H150V216Q150 138 185 99T285 59Q349 59 384 98T419 216V667H499V216Q499 105 443 47T285 -12Z"  />
<glyph unicode="&#xDA;" horiz-adv-x="569" d="M277 728H226L340 872H412L277 728ZM285 -12Q184 -12 127 46T70 216V667H150V216Q150 138 185 99T285 59Q349 59 384 98T419 216V667H499V216Q499 105 443 47T285 -12Z"  />
<glyph unicode="&#xDB;" horiz-adv-x="569" d="M358 728L286 833L217 728H171L251 872H321L404 728H358ZM285 -12Q184 -12 127 46T70 216V667H150V216Q150 138 185 99T285 59Q349 59 384 98T419 216V667H499V216Q499 105 443 47T285 -12Z"  />
<glyph unicode="&#xDC;" horiz-adv-x="569" d="M417 773Q417 754 404 741T372 728Q353 728 340 741T327 773Q327 791 340 804T372 818Q391 818 404 805T417 773ZM243 773Q243 754 230 741T198 728Q179 728 166 741T153 773Q153 791 166 804T198 818Q216 818 229 805T243 773ZM285 -12Q184 -12 127 46T70 216V667H150V216Q150 138 185 99T285 59Q349 59 384 98T419 216V667H499V216Q499 105 443 47T285 -12Z"  />
<glyph unicode="&#xDD;" horiz-adv-x="501" d="M247 728H196L310 872H382L247 728ZM211 0V282L5 667H94L251 359L408 667H496L290 282V0H211Z"  />
<glyph unicode="&#xDE;" horiz-adv-x="488" d="M70 0V667H150V547H273Q319 547 353 531T411 487T446 423T458 346Q458 305 446 269T411 206T354 163T273 147H150V0H70ZM265 218Q317 218 346 253T376 346Q376 403 347 440T265 477H150V218H265Z"  />
<glyph unicode="&#xDF;" horiz-adv-x="816" d="M200 -12Q143 -12 101 6T26 59L64 115Q87 89 122 71T199 53Q249 53 274 78T300 141Q300 174 281 194T234 230T172 260T111 293T63 342T44 416Q44 448 56 474T91 520T143 551T210 562Q261 562 299 547T367 501L331 447Q306 473 275 485T211 497Q173 497 147 475T121 417Q121 388 140 370T187 337T249 308T310 272T358 221T377 143Q377 110 366 82T332 33T276 0T200 -12ZM608 -12Q551 -12 509 6T434 59L472 115Q495 89 530 71T607 53Q657 53 682 78T708 141Q708 174 689 194T642 230T580 260T519 293T471 342T452 416Q452 448 464 474T499 520T551 551T618 562Q669 562 707 547T775 501L739 447Q714 473 683 485T619 497Q581 497 555 475T529 417Q529 388 548 370T595 337T657 308T718 272T766 221T785 143Q785 110 774 82T740 33T684 0T608 -12Z"  />
<glyph unicode="&#xE0;" horiz-adv-x="445" d="M266 550L438 0H358L322 122H123L87 0H6L179 550H266ZM223 465L139 188H305L223 465ZM230 606L95 750H168L281 606H230Z"  />
<glyph unicode="&#xE1;" horiz-adv-x="445" d="M266 550L438 0H358L322 122H123L87 0H6L179 550H266ZM223 465L139 188H305L223 465ZM216 606H165L279 750H351L216 606Z"  />
<glyph unicode="&#xE2;" horiz-adv-x="445" d="M266 550L438 0H358L322 122H123L87 0H6L179 550H266ZM223 465L139 188H305L223 465ZM294 606L222 711L153 606H107L187 750H257L340 606H294Z"  />
<glyph unicode="&#xE3;" horiz-adv-x="445" d="M266 550L438 0H358L322 122H123L87 0H6L179 550H266ZM223 465L139 188H305L223 465ZM272 604Q248 604 235 618T213 651T195 683T170 698Q153 698 141 677T129 610H87Q87 667 108 705T172 744Q196 744 209 730T231 697T250 665T274 650Q292 650 303 671T315 738H357Q357 681 336 643T272 604Z"  />
<glyph unicode="&#xE4;" horiz-adv-x="445" d="M266 550L438 0H358L322 122H123L87 0H6L179 550H266ZM223 465L139 188H305L223 465ZM354 660Q354 641 341 628T309 615Q290 615 277 628T264 660Q264 678 277 691T309 705Q328 705 341 692T354 660ZM180 660Q180 641 167 628T135 615Q116 615 103 628T90 660Q90 678 103 691T135 705Q153 705 166 692T180 660Z"  />
<glyph unicode="&#xE5;" horiz-adv-x="445" d="M266 550L438 0H358L322 122H123L87 0H6L179 550H266ZM223 465L139 188H305L223 465ZM223 605Q185 605 159 631T132 696Q132 734 158 760T223 786Q261 786 287 760T313 696Q313 658 287 632T223 605ZM223 643Q245 643 260 658T275 696Q275 718 260 733T223 749Q201 749 186 734T170 696Q170 673 185 658T223 643Z"  />
<glyph unicode="&#xE6;" horiz-adv-x="648" d="M302 0V122H142L84 0H3L272 550H603V484H377V315H597V249H377V66H603V0H302ZM302 465L169 188H302V465Z"  />
<glyph unicode="&#xE7;" horiz-adv-x="468" d="M264 -191Q236 -191 213 -182T175 -161L193 -124Q225 -152 263 -152Q284 -152 300 -141T317 -110Q317 -94 309 -85T284 -75Q273 -75 265 -79T251 -91L219 -73L241 -10Q195 -5 158 19T96 80T57 168T43 275Q43 337 58 389T103 480T174 540T269 562Q301 562 327 554T375 530T412 495T442 450L381 422Q363 457 335 476T269 496Q234 496 207 480T160 434T131 364T120 275Q120 228 130 188T160 118T206 71T269 54Q307 54 335 74T381 130L443 103Q418 57 381 25T284 -11L267 -55Q280 -45 300 -45Q326 -45 343 -63T360 -111Q360 -147 333 -169T264 -191Z"  />
<glyph unicode="&#xE8;" horiz-adv-x="411" d="M66 0V550H367V484H141V315H361V249H141V66H367V0H66ZM226 606L91 750H164L277 606H226Z"  />
<glyph unicode="&#xE9;" horiz-adv-x="411" d="M66 0V550H367V484H141V315H361V249H141V66H367V0H66ZM212 606H161L275 750H347L212 606Z"  />
<glyph unicode="&#xEA;" horiz-adv-x="411" d="M66 0V550H367V484H141V315H361V249H141V66H367V0H66ZM289 606L217 711L148 606H102L182 750H252L335 606H289Z"  />
<glyph unicode="&#xEB;" horiz-adv-x="411" d="M66 0V550H367V484H141V315H361V249H141V66H367V0H66ZM349 660Q349 641 336 628T304 615Q285 615 272 628T259 660Q259 678 272 691T304 705Q323 705 336 692T349 660ZM175 660Q175 641 162 628T130 615Q111 615 98 628T85 660Q85 678 98 691T130 705Q148 705 161 692T175 660Z"  />
<glyph unicode="&#xEC;" horiz-adv-x="204" d="M66 0V550H141V0H66ZM110 606L-25 750H48L161 606H110Z"  />
<glyph unicode="&#xED;" horiz-adv-x="204" d="M66 0V550H141V0H66ZM96 606H45L159 750H231L96 606Z"  />
<glyph unicode="&#xEE;" horiz-adv-x="204" d="M66 0V550H141V0H66ZM173 606L101 711L32 606H-14L66 750H136L219 606H173Z"  />
<glyph unicode="&#xEF;" horiz-adv-x="204" d="M66 0V550H141V0H66ZM235 660Q235 641 222 628T190 615Q171 615 158 628T145 660Q145 678 158 691T190 705Q209 705 222 692T235 660ZM61 660Q61 641 48 628T16 615Q-3 615 -16 628T-29 660Q-29 678 -16 691T16 705Q34 705 47 692T61 660Z"  />
<glyph unicode="&#xF0;" horiz-adv-x="521" d="M76 0V252H16V302H76V550H234Q291 550 334 529T408 471T453 384T469 274Q469 215 454 165T409 78T335 21T234 0H76ZM151 252V66H234Q273 66 302 82T352 125T382 191T392 274Q392 319 382 357T353 424T303 468T234 484H151V302H253V252H151Z"  />
<glyph unicode="&#xF1;" horiz-adv-x="510" d="M369 0L140 413V0H66V550H144L369 146V550H444V0H369ZM303 604Q279 604 266 618T244 651T226 683T201 698Q184 698 172 677T160 610H118Q118 667 139 705T203 744Q227 744 240 730T262 697T281 665T305 650Q323 650 334 671T346 738H388Q388 681 367 643T303 604Z"  />
<glyph unicode="&#xF2;" horiz-adv-x="529" d="M265 -12Q211 -12 170 10T100 71T58 162T43 275Q43 335 57 387T100 478T169 539T265 562Q319 562 360 540T429 479T471 388T486 275Q486 215 472 163T429 72T360 11T265 -12ZM265 54Q300 54 327 71T372 119T399 189T409 275Q409 321 400 361T372 432T327 479T265 496Q229 496 202 479T157 432T129 362T120 275Q120 230 129 190T156 119T202 72T265 54ZM271 606L136 750H209L322 606H271Z"  />
<glyph unicode="&#xF3;" horiz-adv-x="529" d="M265 -12Q211 -12 170 10T100 71T58 162T43 275Q43 335 57 387T100 478T169 539T265 562Q319 562 360 540T429 479T471 388T486 275Q486 215 472 163T429 72T360 11T265 -12ZM265 54Q300 54 327 71T372 119T399 189T409 275Q409 321 400 361T372 432T327 479T265 496Q229 496 202 479T157 432T129 362T120 275Q120 230 129 190T156 119T202 72T265 54ZM259 606H208L322 750H394L259 606Z"  />
<glyph unicode="&#xF4;" horiz-adv-x="529" d="M265 -12Q211 -12 170 10T100 71T58 162T43 275Q43 335 57 387T100 478T169 539T265 562Q319 562 360 540T429 479T471 388T486 275Q486 215 472 163T429 72T360 11T265 -12ZM265 54Q300 54 327 71T372 119T399 189T409 275Q409 321 400 361T372 432T327 479T265 496Q229 496 202 479T157 432T129 362T120 275Q120 230 129 190T156 119T202 72T265 54ZM336 606L264 711L195 606H149L229 750H299L382 606H336Z"  />
<glyph unicode="&#xF5;" horiz-adv-x="529" d="M265 -12Q211 -12 170 10T100 71T58 162T43 275Q43 335 57 387T100 478T169 539T265 562Q319 562 360 540T429 479T471 388T486 275Q486 215 472 163T429 72T360 11T265 -12ZM265 54Q300 54 327 71T372 119T399 189T409 275Q409 321 400 361T372 432T327 479T265 496Q229 496 202 479T157 432T129 362T120 275Q120 230 129 190T156 119T202 72T265 54ZM315 604Q291 604 278 618T256 651T238 683T213 698Q196 698 184 677T172 610H130Q130 667 151 705T215 744Q239 744 252 730T274 697T293 665T317 650Q335 650 346 671T358 738H400Q400 681 379 643T315 604Z"  />
<glyph unicode="&#xF6;" horiz-adv-x="529" d="M265 -12Q211 -12 170 10T100 71T58 162T43 275Q43 335 57 387T100 478T169 539T265 562Q319 562 360 540T429 479T471 388T486 275Q486 215 472 163T429 72T360 11T265 -12ZM265 54Q300 54 327 71T372 119T399 189T409 275Q409 321 400 361T372 432T327 479T265 496Q229 496 202 479T157 432T129 362T120 275Q120 230 129 190T156 119T202 72T265 54ZM397 660Q397 641 384 628T352 615Q333 615 320 628T307 660Q307 678 320 691T352 705Q371 705 384 692T397 660ZM223 660Q223 641 210 628T178 615Q159 615 146 628T133 660Q133 678 146 691T178 705Q196 705 209 692T223 660Z"  />
<glyph unicode="&#xF7;" horiz-adv-x="443" d="M267 503Q267 484 254 471T222 457Q203 457 190 470T177 503Q177 522 190 534T222 547Q241 547 254 535T267 503ZM29 312V363H414V312H29ZM267 168Q267 149 254 136T222 123Q203 123 190 136T177 168Q177 186 190 199T222 213Q241 213 254 200T267 168Z"  />
<glyph unicode="&#xF8;" horiz-adv-x="529" d="M265 -12Q193 -12 142 27L126 0H70L107 62Q75 101 59 156T43 275Q43 335 57 387T100 478T169 539T265 562Q335 562 386 523L402 550H458L421 489Q453 449 469 394T486 275Q486 215 472 163T429 72T360 11T265 -12ZM265 54Q300 54 327 71T372 119T399 189T409 275Q409 317 401 353T379 419L180 89Q215 54 265 54ZM120 275Q120 191 149 131L349 461Q332 478 311 487T265 496Q229 496 202 479T157 432T129 362T120 275Z"  />
<glyph unicode="&#xF9;" horiz-adv-x="507" d="M253 -12Q157 -12 112 44T66 208V550H141V187Q141 122 169 88T253 54Q309 54 337 88T366 187V550H441V208Q441 99 395 44T253 -12ZM260 606L125 750H198L311 606H260Z"  />
<glyph unicode="&#xFA;" horiz-adv-x="507" d="M253 -12Q157 -12 112 44T66 208V550H141V187Q141 122 169 88T253 54Q309 54 337 88T366 187V550H441V208Q441 99 395 44T253 -12ZM248 606H197L311 750H383L248 606Z"  />
<glyph unicode="&#xFB;" horiz-adv-x="507" d="M253 -12Q157 -12 112 44T66 208V550H141V187Q141 122 169 88T253 54Q309 54 337 88T366 187V550H441V208Q441 99 395 44T253 -12ZM324 606L252 711L183 606H137L217 750H287L370 606H324Z"  />
<glyph unicode="&#xFC;" horiz-adv-x="507" d="M253 -12Q157 -12 112 44T66 208V550H141V187Q141 122 169 88T253 54Q309 54 337 88T366 187V550H441V208Q441 99 395 44T253 -12ZM385 660Q385 641 372 628T340 615Q321 615 308 628T295 660Q295 678 308 691T340 705Q359 705 372 692T385 660ZM211 660Q211 641 198 628T166 615Q147 615 134 628T121 660Q121 678 134 691T166 705Q184 705 197 692T211 660Z"  />
<glyph unicode="&#xFD;" horiz-adv-x="439" d="M183 0V233L3 550H87L220 304L353 550H435L258 233V0H183ZM214 606H163L277 750H349L214 606Z"  />
<glyph unicode="&#xFE;" horiz-adv-x="429" d="M66 0V550H141V457H242Q282 457 312 444T362 407T392 354T402 290Q402 256 393 226T363 172T313 136T242 122H141V0H66ZM235 188Q281 188 303 216T325 289Q325 333 303 362T235 391H141V188H235Z"  />
<glyph unicode="&#xFF;" horiz-adv-x="439" d="M183 0V233L3 550H87L220 304L353 550H435L258 233V0H183ZM353 660Q353 641 340 628T308 615Q289 615 276 628T263 660Q263 678 276 691T308 705Q327 705 340 692T353 660ZM179 660Q179 641 166 628T134 615Q115 615 102 628T89 660Q89 678 102 691T134 705Q152 705 165 692T179 660Z"  />
<glyph unicode="&#x152;" horiz-adv-x="852" d="M460 0V94Q431 37 385 13T291 -12Q232 -12 187 15T110 88T63 198T47 333Q47 406 63 468T110 577T186 650T291 677Q314 677 338 672T384 654T426 621T460 573V667H803V596H539V377H796V306H539V71H803V0H460ZM460 466Q440 535 398 570T302 606Q259 606 227 585T173 527T140 441T129 333Q129 276 140 226T172 139T226 81T302 59Q356 59 398 95T460 201V466Z"  />
<glyph unicode="&#x153;" horiz-adv-x="743" d="M396 0V77Q372 28 334 8T252 -12Q201 -12 162 10T97 71T57 162T43 275Q43 335 56 387T96 478T162 539T252 562Q296 562 334 542T396 473V550H698V484H471V315H692V249H471V66H698V0H396ZM396 376Q380 436 345 466T265 496Q229 496 202 479T156 432T129 362T120 275Q120 229 129 189T156 119T201 72T265 54Q312 54 346 84T396 175V376Z"  />
<glyph unicode="&#x160;" horiz-adv-x="466" d="M206 728L123 872H169L241 767L310 872H356L276 728H206ZM229 -12Q163 -12 114 11T29 72L73 133Q99 102 139 81T229 59Q260 59 283 68T321 92T343 128T351 169Q351 209 329 235T273 280T200 316T128 356T72 414T49 503Q49 541 63 573T103 628T164 665T241 678Q353 678 419 607L378 547Q350 578 315 592T239 607Q192 607 161 580T130 507Q130 472 152 449T208 408T281 371T353 328T409 267T432 174Q432 137 420 104T383 45T320 4T229 -12Z"  />
<glyph unicode="&#x161;" horiz-adv-x="408" d="M200 -12Q143 -12 101 6T26 59L64 115Q87 89 122 71T199 53Q249 53 274 78T300 141Q300 174 281 194T234 230T172 260T111 293T63 342T44 416Q44 448 56 474T91 520T143 551T210 562Q261 562 299 547T367 501L331 447Q306 473 275 485T211 497Q173 497 147 475T121 417Q121 388 140 370T187 337T249 308T310 272T358 221T377 143Q377 110 366 82T332 33T276 0T200 -12ZM174 606L91 750H137L209 645L278 750H324L244 606H174Z"  />
<glyph unicode="&#x178;" horiz-adv-x="501" d="M386 773Q386 754 373 741T341 728Q322 728 309 741T296 773Q296 791 309 804T341 818Q360 818 373 805T386 773ZM212 773Q212 754 199 741T167 728Q148 728 135 741T122 773Q122 791 135 804T167 818Q185 818 198 805T212 773ZM211 0V282L5 667H94L251 359L408 667H496L290 282V0H211Z"  />
<glyph unicode="&#x17D;" horiz-adv-x="463" d="M198 728L115 872H161L233 767L302 872H348L268 728H198ZM40 0V68L321 596H40V667H416V601L134 71H423V0H40Z"  />
<glyph unicode="&#x17E;" horiz-adv-x="405" d="M33 0V58L274 484H33V550H366V493L125 66H372V0H33ZM166 606L83 750H129L201 645L270 750H316L236 606H166Z"  />
<glyph unicode="&#x192;" horiz-adv-x="345" d="M25 -119L99 215H55V270H111L145 422Q162 494 195 527T281 561Q327 561 355 532L322 475Q312 490 288 490Q262 490 247 470T224 413L192 270H281V215H180L105 -119H25Z"  />
<glyph unicode="&#x2C6;" horiz-adv-x="233" d="M187 556L115 661L46 556H0L80 700H150L233 556H187Z"  />
<glyph unicode="&#x2DC;" horiz-adv-x="270" d="M185 554Q161 554 148 568T126 601T108 633T83 648Q66 648 54 627T42 560H0Q0 617 21 655T85 694Q109 694 122 680T144 647T163 615T187 600Q205 600 216 621T228 688H270Q270 631 249 593T185 554Z"  />
<glyph unicode="&#x3BC;" horiz-adv-x="465" d="M66 -184V483H137V139Q137 90 158 70T215 50Q233 50 249 56T281 74T308 98T328 127V483H400V0H328V67Q306 35 270 12T188 -12Q173 -12 161 -10T137 -5V-184H66Z"  />
<glyph unicode="&#x2013;" horiz-adv-x="527" d="M30 210V274H497V210H30Z"  />
<glyph unicode="&#x2014;" horiz-adv-x="737" d="M30 210V274H707V210H30Z"  />
<glyph unicode="&#x2018;" horiz-adv-x="229" d="M53 529Q53 574 75 613T132 677L168 648Q144 632 126 606T105 555Q106 555 110 556T117 557Q138 557 151 543T165 507Q165 486 150 471T113 455Q89 455 71 474T53 529Z"  />
<glyph unicode="&#x2019;" horiz-adv-x="229" d="M173 603Q173 557 150 518T93 454L57 484Q81 500 99 526T121 577Q117 575 108 575Q88 575 75 589T61 625Q61 646 75 661T113 677Q137 677 155 658T173 603Z"  />
<glyph unicode="&#x201A;" horiz-adv-x="229" d="M173 22Q173 -23 150 -62T93 -126L57 -97Q81 -80 99 -54T121 -4Q119 -4 116 -4T108 -5Q88 -5 75 9T61 44Q61 66 75 81T113 97Q137 97 155 78T173 22Z"  />
<glyph unicode="&#x201C;" horiz-adv-x="386" d="M56 529Q56 574 79 613T135 677L172 648Q148 632 130 606T108 555Q109 555 113 556T121 557Q141 557 154 543T168 507Q168 486 153 471T116 455Q92 455 74 474T56 529ZM213 529Q213 574 236 613T293 677L329 648Q305 632 287 606T266 555Q267 555 271 556T278 557Q298 557 311 543T325 507Q325 486 311 471T273 455Q249 455 231 474T213 529Z"  />
<glyph unicode="&#x201D;" horiz-adv-x="386" d="M330 603Q330 557 308 518T251 454L215 484Q239 500 257 526T278 577Q277 576 273 576T265 575Q245 575 232 589T218 625Q218 646 233 661T270 677Q294 677 312 658T330 603ZM173 603Q173 557 150 518T93 454L57 484Q81 500 99 526T121 577Q117 575 108 575Q88 575 75 589T61 625Q61 646 75 661T113 677Q137 677 155 658T173 603Z"  />
<glyph unicode="&#x201E;" horiz-adv-x="386" d="M173 22Q173 -23 150 -62T93 -126L57 -97Q81 -80 99 -54T121 -4Q119 -4 116 -4T108 -5Q88 -5 75 9T61 44Q61 66 75 81T113 97Q137 97 155 78T173 22ZM330 22Q330 -23 308 -62T251 -126L215 -97Q239 -80 257 -54T278 -4Q277 -4 273 -4T265 -5Q245 -5 232 9T218 44Q218 66 233 81T270 97Q294 97 312 78T330 22Z"  />
<glyph unicode="&#x2020;" horiz-adv-x="262" d="M150 536L154 327H107L112 536L23 532V574L112 571L107 677H154L150 571L239 574V532L150 536Z"  />
<glyph unicode="&#x2021;" horiz-adv-x="262" d="M239 532L150 536V322L239 326V284L150 287L154 180H107L111 287L23 284V326L111 322V536L23 532V574L111 571L107 677H154L150 571L239 574V532Z"  />
<glyph unicode="&#x2022;" horiz-adv-x="358" d="M287 242Q287 220 279 201T256 168T222 145T180 136Q158 136 139 144T105 167T82 201T73 242Q73 264 81 283T104 317T138 340T180 349Q202 349 221 341T255 318T278 284T287 242Z"  />
<glyph unicode="&#x2026;" horiz-adv-x="685" d="M168 44Q168 22 152 6T114 -10Q92 -10 77 6T61 44Q61 65 76 81T114 97Q136 97 152 81T168 44ZM396 44Q396 22 381 6T343 -10Q320 -10 305 6T289 44Q289 65 304 81T343 97Q365 97 380 81T396 44ZM625 44Q625 22 609 6T571 -10Q549 -10 534 6T518 44Q518 65 533 81T571 97Q593 97 609 81T625 44Z"  />
<glyph unicode="&#x2030;" horiz-adv-x="785" d="M257 425Q257 367 225 328T140 289Q87 289 56 328T24 425Q24 454 32 479T56 522T92 551T140 562Q166 562 187 552T224 523T248 479T257 425ZM504 125Q504 67 472 28T387 -11Q361 -11 340 -1T303 28T280 71T271 125Q271 154 279 179T303 222T339 251T387 262Q413 262 434 252T471 223T495 179T504 125ZM131 0H85L398 550H445L131 0ZM206 425Q206 465 189 492T140 519Q109 519 91 492T73 425Q73 385 91 359T140 332Q171 332 188 358T206 425ZM454 125Q454 165 436 192T387 219Q356 219 338 192T320 125Q320 86 338 59T387 32Q418 32 436 59T454 125ZM761 125Q761 96 753 71T729 28T693 0T645 -11Q619 -11 598 -1T561 28T537 72T528 125Q528 154 536 179T560 222T597 251T645 262Q671 262 692 252T729 223T752 179T761 125ZM711 125Q711 165 693 192T645 219Q614 219 596 192T578 125Q578 86 596 59T645 32Q675 32 693 59T711 125Z"  />
<glyph unicode="&#x2039;" horiz-adv-x="252" d="M155 63L30 243L155 420H222L97 243L222 63H155Z"  />
<glyph unicode="&#x203A;" horiz-adv-x="252" d="M97 63H30L155 243L30 420H97L222 243L97 63Z"  />
<glyph unicode="&#x20AC;" horiz-adv-x="487" d="M140 314Q139 304 139 295T139 275Q139 264 139 255T141 235H317V192H148Q163 130 199 92T288 54Q326 54 354 74T400 130L462 103Q436 54 395 21T288 -12Q245 -12 209 3T144 45T97 109T69 192H24V235H64Q63 245 63 254T62 275Q62 285 62 294T63 314H24V357H69Q78 403 97 440T144 505T208 547T288 562Q320 562 346 554T394 530T431 495T461 450L400 422Q382 457 354 476T288 496Q234 496 198 458T148 357H317V314H140Z"  />
<glyph unicode="&#x2122;" horiz-adv-x="414" d="M351 447V629L286 447H278L213 629V447H185V667H228L282 509L336 667H379V447H351ZM97 641V447H69V641H17V667H149V641H97Z"  />


</font>
</defs>
</svg>
